<?xml version="1.0" encoding="utf-8"?>
<!-- Generator: Adobe Illustrator 26.3.1, SVG Export Plug-In . SVG Version: 6.00 Build 0)  -->
<svg version="1.1" id="Layer_1" xmlns="http://www.w3.org/2000/svg" xmlns:xlink="http://www.w3.org/1999/xlink" x="0px" y="0px"
	 viewBox="0 0 182.2 200.9" style="enable-background:new 0 0 182.2 200.9;" xml:space="preserve">
<style type="text/css">
	.st0{fill:#C69258;}
	.st1{fill:#FFFFFF;}
</style>
<g>
	<path class="st0" d="M182.2,51.2c0.2,6.8-1.9,13.1-3.4,19.4c-8.8,37.9-17.9,75.8-26.7,113.7c-1.9,8-5.2,14.4-13.9,16.1
		c-9.1,1.7-14.6-3.3-19.1-10.6c-5.9-9.7-12.1-19.3-18.3-28.8c-5.4-8.2-14.4-8.2-19.6,0.1c-6.1,9.6-11.9,19.4-17.8,29.1
		c-5.3,8.7-11,11.8-19.2,10.2c-8.3-1.6-12.2-7.4-14-15.1c-9.5-40.9-19.3-81.7-28.6-122.6c-5.1-22.4,3-41.9,21.3-54.2
		C40.2-3.1,61.2-3.1,79.7,10c9,6.4,15.9,4.2,24.1-1.1C120.4-2.1,138-2.8,155.6,6.6C173.3,16,181,31.8,182.2,51.2z"/>
	<path class="st1" d="M52.8,12.5C26.8,12.4,8.7,33.8,13,57.2c2.3,12.4,5.4,24.7,8.3,37c6.8,29,13.6,58.1,20.5,87.1
		c0.6,2.6,1,5.8,4.4,6.5c3.7,0.7,5.4-2.1,7-4.7c2.9-4.7,5.9-9.4,8.7-14.3c19.2-33.7,44.8-61,79.7-78.8c6.1-3.1,11.7-7.1,16.4-12.1
		c14.2-15.3,15.6-35.8,3.6-50.4c-13.8-16.7-34.1-20-52.1-7.5c-12.7,8.8-24.5,9.4-36.9-0.1C66.2,15,58.7,12.7,52.8,12.5z"/>
</g>
</svg>
