<?xml version="1.0" encoding="utf-8"?>
<!-- Generator: Adobe Illustrator 26.3.1, SVG Export Plug-In . SVG Version: 6.00 Build 0)  -->
<svg version="1.1" id="Layer_1" xmlns="http://www.w3.org/2000/svg" xmlns:xlink="http://www.w3.org/1999/xlink" x="0px" y="0px"
	 viewBox="0 0 1292.23 254.58" style="enable-background:new 0 0 1292.23 254.58;" xml:space="preserve">
<style type="text/css">
	.st0{fill:#C69258;}
	.st1{font-family:'TrebuchetMS';}
	.st2{font-size:203.3511px;}
	.st3{fill:#5A595E;}
	.st4{font-family:'MyriadPro-Regular';}
	.st5{font-size:100.5201px;}
	.st6{fill:#FFFFFF;}
</style>
<text transform="matrix(1 0 0 1 220.9575 151.021)" class="st0 st1 st2">dental</text>
<text transform="matrix(1 0 0 1 803.7065 151.021)" class="st3 st1 st2">clinic</text>
<text transform="matrix(1 0 0 1 221.8091 252.4712)" class="st3 st4 st5">Dr. Abel Martínez Gambín</text>
<g>
	<path class="st0" d="M188.3,99.08c0.22,6.99-2.01,13.51-3.55,20.09c-9.11,39.2-18.49,78.34-27.63,117.54
		c-1.92,8.22-5.37,14.9-14.39,16.59c-9.43,1.77-15.13-3.4-19.7-10.96c-6.08-10.06-12.49-19.93-18.92-29.77
		c-5.54-8.48-14.87-8.46-20.28,0.09c-6.28,9.94-12.27,20.07-18.39,30.11c-5.47,8.97-11.32,12.19-19.88,10.59
		c-8.6-1.61-12.57-7.6-14.44-15.63c-9.85-42.24-19.99-84.42-29.58-126.73C-3.7,87.9,4.63,67.69,23.53,55.01
		C41.49,42.96,63.22,43,82.36,56.46c9.34,6.57,16.48,4.34,24.9-1.19c17.18-11.28,35.36-12.06,53.52-2.35
		C179.09,62.72,187.08,78.98,188.3,99.08z"/>
	<path class="st6" d="M54.6,59.05c-26.93-0.07-45.66,22-41.13,46.25c2.4,12.83,5.6,25.51,8.57,38.23
		c7.01,30.02,14.08,60.03,21.19,90.03c0.64,2.72,0.99,6.01,4.53,6.67c3.84,0.72,5.54-2.18,7.2-4.9c3-4.9,6.1-9.75,8.94-14.74
		c19.85-34.85,46.25-63.03,82.37-81.45c6.29-3.21,12.07-7.32,16.94-12.55c14.67-15.78,16.17-36.97,3.71-52.06
		c-14.24-17.25-35.25-20.69-53.84-7.78c-13.15,9.12-25.31,9.67-38.11-0.07C68.37,61.66,60.66,59.25,54.6,59.05z"/>
</g>
</svg>
